# Blender v2.79 (sub 0) OBJ File: ''
# www.blender.org
mtllib drawerhandle.mtl
o Cube.002_Cube.015
v -0.196953 -0.021000 -0.055000
v -0.156953 -0.021000 -0.055000
v -0.156953 -0.021000 -0.015000
v -0.196953 -0.021000 -0.015000
v -0.196953 0.019000 -0.055000
v -0.196953 0.019000 -0.015000
v -0.156953 0.019000 -0.015000
v -0.156953 0.019000 -0.055000
vn 0.0000 -1.0000 -0.0000
vn 0.0000 1.0000 0.0000
vn 0.0000 0.0000 -1.0000
vn 1.0000 -0.0000 0.0000
vn 0.0000 -0.0000 1.0000
vn -1.0000 0.0000 0.0000
usemtl None
s 1
f 1//1 2//1 3//1 4//1
f 5//2 6//2 7//2 8//2
f 1//3 5//3 8//3 2//3
f 2//4 8//4 7//4 3//4
f 3//5 7//5 6//5 4//5
f 5//6 1//6 4//6 6//6
o Cube.009_Cube.001
v 0.085000 -0.132000 -0.092000
v 0.085000 -0.122000 -0.092000
v 0.125000 -0.122000 -0.092000
v 0.125000 -0.132000 -0.092000
v 0.085000 -0.132000 -0.002000
v 0.125000 -0.132000 -0.002000
v 0.125000 -0.122000 -0.002000
v 0.085000 -0.122000 -0.002000
v 0.085321 0.125169 -0.092000
v 0.085321 0.135169 -0.092000
v 0.125321 0.135169 -0.092000
v 0.125321 0.125169 -0.092000
v 0.085321 0.125169 -0.002000
v 0.125321 0.125169 -0.002000
v 0.125321 0.135169 -0.002000
v 0.085321 0.135169 -0.002000
v -0.069515 -0.004683 -0.039205
v -0.169515 -0.004683 -0.039205
v -0.169515 0.005317 -0.039205
v -0.069515 0.005317 -0.039205
v -0.069515 -0.004683 -0.029205
v -0.069515 0.005317 -0.029205
v -0.169515 0.005317 -0.029205
v -0.169515 -0.004683 -0.029205
v -0.062715 -0.124540 -0.092000
v -0.072715 -0.124540 -0.092000
v -0.072715 0.125460 -0.092000
v -0.062715 0.125460 -0.092000
v -0.062715 -0.124540 -0.002000
v -0.062715 0.125460 -0.002000
v -0.072715 0.125460 -0.002000
v -0.072715 -0.124540 -0.002000
v -0.072562 -0.124560 -0.092000
v -0.072562 -0.114560 -0.092000
v 0.127438 -0.114560 -0.092000
v 0.127438 -0.124560 -0.092000
v -0.072562 -0.124560 -0.002000
v 0.127438 -0.124560 -0.002000
v 0.127438 -0.114560 -0.002000
v -0.072562 -0.114560 -0.002000
v -0.072562 0.115440 -0.092000
v -0.072562 0.125440 -0.092000
v 0.127438 0.125440 -0.092000
v 0.127438 0.115440 -0.092000
v -0.072562 0.115440 -0.002000
v 0.127438 0.115440 -0.002000
v 0.127438 0.125440 -0.002000
v -0.072562 0.125440 -0.002000
v 0.127438 -0.124534 -0.092000
v 0.117438 -0.124534 -0.092000
v 0.117438 0.125466 -0.092000
v 0.127438 0.125466 -0.092000
v 0.127438 -0.124534 -0.002000
v 0.127438 0.125466 -0.002000
v 0.117438 0.125466 -0.002000
v 0.117438 -0.124534 -0.002000
v 0.127438 -0.124534 -0.087000
v 0.127438 -0.124534 -0.097000
v 0.127438 0.125466 -0.097000
v 0.127438 0.125466 -0.087000
v -0.072562 -0.124534 -0.087000
v -0.072562 0.125466 -0.087000
v -0.072562 0.125466 -0.097000
v -0.072562 -0.124534 -0.097000
vn 0.0000 0.0000 -1.0000
vn 0.0000 -0.0000 1.0000
vn -1.0000 0.0000 0.0000
vn 0.0000 1.0000 0.0000
vn 1.0000 0.0000 0.0000
vn 0.0000 -1.0000 0.0000
usemtl None
s 1
f 9//7 10//7 11//7 12//7
f 13//8 14//8 15//8 16//8
f 9//9 13//9 16//9 10//9
f 10//10 16//10 15//10 11//10
f 11//11 15//11 14//11 12//11
f 13//12 9//12 12//12 14//12
f 17//7 18//7 19//7 20//7
f 21//8 22//8 23//8 24//8
f 17//9 21//9 24//9 18//9
f 18//10 24//10 23//10 19//10
f 19//11 23//11 22//11 20//11
f 21//12 17//12 20//12 22//12
f 25//7 26//7 27//7 28//7
f 29//8 30//8 31//8 32//8
f 25//12 29//12 32//12 26//12
f 26//9 32//9 31//9 27//9
f 27//10 31//10 30//10 28//10
f 29//11 25//11 28//11 30//11
f 33//7 34//7 35//7 36//7
f 37//8 38//8 39//8 40//8
f 33//12 37//12 40//12 34//12
f 34//9 40//9 39//9 35//9
f 35//10 39//10 38//10 36//10
f 37//11 33//11 36//11 38//11
f 41//7 42//7 43//7 44//7
f 45//8 46//8 47//8 48//8
f 41//9 45//9 48//9 42//9
f 42//10 48//10 47//10 43//10
f 43//11 47//11 46//11 44//11
f 45//12 41//12 44//12 46//12
f 49//7 50//7 51//7 52//7
f 53//8 54//8 55//8 56//8
f 49//9 53//9 56//9 50//9
f 50//10 56//10 55//10 51//10
f 51//11 55//11 54//11 52//11
f 53//12 49//12 52//12 54//12
f 57//7 58//7 59//7 60//7
f 61//8 62//8 63//8 64//8
f 57//12 61//12 64//12 58//12
f 58//9 64//9 63//9 59//9
f 59//10 63//10 62//10 60//10
f 61//11 57//11 60//11 62//11
f 65//11 66//11 67//11 68//11
f 69//9 70//9 71//9 72//9
f 65//12 69//12 72//12 66//12
f 66//7 72//7 71//7 67//7
f 67//10 71//10 70//10 68//10
f 69//8 65//8 68//8 70//8
